<svg aria-hidden="true" style="position: absolute; width: 0; height: 0; overflow: hidden;" version="1.1" xmlns="http://www.w3.org/2000/svg" xmlns:xlink="http://www.w3.org/1999/xlink">
<defs>
<symbol id="facebook" viewBox="0 0 32 32">
<path fill="#3b5998" style="fill: var(--color1, #3b5998)" d="M32 16c0 8.837-7.163 16-16 16s-16-7.163-16-16c0-8.837 7.163-16 16-16s16 7.163 16 16z"></path>
<path fill="#fff" style="fill: var(--color2, #fff)" d="M20.022 16.626h-2.855v10.459h-4.326v-10.459h-2.057v-3.676h2.057v-2.379c0-1.701 0.808-4.365 4.364-4.365l3.204 0.013v3.568h-2.325c-0.381 0-0.918 0.191-0.918 1.002v2.163h3.233l-0.378 3.672z"></path>
</symbol>
<symbol id="icon-spriteodnoklassniki" viewBox="0 0 32 32">
<path d="M16.015 13.261c0 0 0 0 0 0 1.513 0 2.739-1.226 2.739-2.739 0-0.009-0-0.018-0-0.026v0.001c-0.006-1.532-1.225-2.751-2.753-2.752-0.003 0-0.007-0-0.011-0-1.518 0-2.749 1.231-2.749 2.749 0 0.013 0 0.025 0 0.038l-0-0.002c0.011 1.526 1.242 2.736 2.775 2.731z"></path>
<path d="M16 0c-8.837 0-16 7.164-16 16s7.163 16 16 16 16-7.164 16-16-7.163-16-16-16zM16.023 4.866c3.117 0.008 5.618 2.558 5.602 5.709-0.016 3.078-2.558 5.573-5.669 5.563-3.080-0.010-5.605-2.564-5.587-5.648 0.017-3.118 2.544-5.632 5.654-5.623zM22.335 18.351c-0.689 0.707-1.519 1.219-2.44 1.577-0.871 0.337-1.825 0.507-2.77 0.621 0.143 0.155 0.21 0.231 0.299 0.32 1.282 1.289 2.57 2.571 3.848 3.864 0.435 0.441 0.526 0.987 0.286 1.498-0.262 0.56-0.849 0.928-1.424 0.888-0.365-0.025-0.649-0.206-0.902-0.461-0.968-0.974-1.954-1.93-2.901-2.922-0.277-0.289-0.409-0.234-0.653 0.017-0.993 1.018-1.956 1.986-2.93 2.943l-0.027 0.027c-0.447 0.441-0.979 0.52-1.497 0.268-0.551-0.266-0.901-0.829-0.874-1.395 0.019-0.382 0.207-0.674 0.469-0.936 1.269-1.267 2.534-2.537 3.8-3.807 0.084-0.084 0.162-0.174 0.284-0.304-1.726-0.18-3.283-0.605-4.616-1.647-0.166-0.13-0.336-0.255-0.487-0.4-0.584-0.56-0.642-1.202-0.181-1.863 0.395-0.566 1.058-0.717 1.747-0.392 0.134 0.063 0.261 0.142 0.382 0.226 2.483 1.707 5.895 1.753 8.388 0.076 0.247-0.189 0.511-0.344 0.817-0.422 0.595-0.153 1.15 0.066 1.469 0.586 0.365 0.595 0.361 1.175-0.089 1.637z"></path>
</symbol>
<symbol id="icon-spritetwitter" viewBox="0 0 32 32">
<path fill="#55acee" style="fill: var(--color3, #55acee)" d="M32 16c0 8.836-7.163 16-16 16s-16-7.163-16-16c0-8.836 7.163-16 16-16s16 7.163 16 16z"></path>
<path fill="#f1f2f2" style="fill: var(--color4, #f1f2f2)" d="M25.801 11.499c-0.64 0.291-1.382 0.503-2.16 0.598l-0.037 0.004c0.791-0.479 1.386-1.214 1.674-2.088l0.008-0.027c-0.699 0.422-1.513 0.744-2.379 0.919l-0.049 0.008c-0.699-0.744-1.689-1.207-2.787-1.207-0.002 0-0.004 0-0.005 0h0c-2.112 0-3.824 1.713-3.824 3.824 0 0.3 0.034 0.592 0.1 0.872-3.178-0.159-5.997-1.682-7.883-3.996-0.326 0.549-0.518 1.211-0.518 1.917 0 0.002 0 0.004 0 0.006v-0c0 1.327 0.676 2.498 1.701 3.183-0.639-0.020-1.233-0.195-1.751-0.489l0.019 0.010-0 0.049c0 1.853 1.319 3.399 3.068 3.75-0.301 0.085-0.646 0.134-1.003 0.134-0.002 0-0.003 0-0.005 0h0c-0.247 0-0.486-0.024-0.72-0.068 0.487 1.519 1.899 2.625 3.573 2.656-1.291 1.021-2.942 1.637-4.738 1.637-0.004 0-0.009 0-0.013 0h0.001c-0.308 0-0.613-0.018-0.912-0.054 1.653 1.078 3.677 1.718 5.85 1.718 0.004 0 0.008 0 0.012 0h-0.001c7.034 0 10.881-5.827 10.881-10.882 0-0.166-0.004-0.331-0.011-0.495 0.752-0.547 1.385-1.203 1.891-1.952l0.017-0.027z"></path>
</symbol>
<symbol id="icon-spritevk" viewBox="0 0 32 32">
<path fill="#4d76a1" style="fill: var(--color5, #4d76a1)" d="M32 16c0 8.837-7.163 16-16 16s-16-7.163-16-16c0-8.837 7.163-16 16-16s16 7.163 16 16z"></path>
<path fill="#fff" style="fill: var(--color2, #fff)" d="M15.396 23.017h1.256s0.379-0.042 0.573-0.25c0.178-0.192 0.173-0.552 0.173-0.552s-0.025-1.685 0.758-1.933c0.771-0.244 1.761 1.629 2.81 2.349 0.793 0.545 1.396 0.426 1.396 0.426l2.806-0.039s1.468-0.090 0.772-1.244c-0.057-0.094-0.405-0.854-2.086-2.414-1.759-1.633-1.524-1.369 0.596-4.193 1.291-1.72 1.807-2.77 1.645-3.22-0.154-0.428-1.103-0.315-1.103-0.315l-3.159 0.020s-0.234-0.032-0.408 0.072c-0.17 0.102-0.279 0.339-0.279 0.339s-0.5 1.331-1.167 2.463c-1.407 2.389-1.969 2.515-2.199 2.366-0.535-0.346-0.401-1.389-0.401-2.13 0-2.315 0.351-3.28-0.684-3.53-0.343-0.083-0.596-0.138-1.474-0.147-1.127-0.012-2.081 0.003-2.621 0.268-0.359 0.176-0.637 0.568-0.468 0.591 0.209 0.028 0.682 0.127 0.932 0.469 0.324 0.44 0.312 1.43 0.312 1.43s0.186 2.725-0.434 3.064c-0.426 0.232-1.010-0.242-2.264-2.409-0.643-1.11-1.128-2.337-1.128-2.337s-0.094-0.229-0.26-0.352c-0.203-0.149-0.485-0.196-0.485-0.196l-3.002 0.020s-0.451 0.013-0.616 0.209c-0.147 0.174-0.012 0.535-0.012 0.535s2.35 5.498 5.011 8.269c2.44 2.54 5.211 2.374 5.211 2.374z"></path>
</symbol>
</defs>
</svg>
